<?xml version="1.0" encoding="UTF-8"?>
<svg xmlns="http://www.w3.org/2000/svg" version="1.1" width="300" height="300" viewBox="0 0 300 300"><rect x="0" y="0" width="300" height="300" fill="#ffffff"/><g transform="scale(10.345)"><g transform="translate(0,0)"><path fill-rule="evenodd" d="M8 0L8 1L9 1L9 2L8 2L8 5L9 5L9 4L11 4L11 5L10 5L10 10L8 10L8 11L7 11L7 10L5 10L5 9L4 9L4 8L0 8L0 9L1 9L1 10L2 10L2 12L3 12L3 10L5 10L5 13L4 13L4 14L3 14L3 13L0 13L0 15L1 15L1 14L3 14L3 16L4 16L4 17L2 17L2 18L4 18L4 19L5 19L5 20L6 20L6 21L7 21L7 20L9 20L9 21L8 21L8 22L10 22L10 23L11 23L11 26L12 26L12 28L11 28L11 27L10 27L10 29L12 29L12 28L14 28L14 27L15 27L15 28L17 28L17 27L15 27L15 26L17 26L17 25L18 25L18 24L20 24L20 25L21 25L21 26L18 26L18 27L19 27L19 28L18 28L18 29L19 29L19 28L20 28L20 29L21 29L21 27L22 27L22 25L23 25L23 28L24 28L24 29L25 29L25 28L26 28L26 25L28 25L28 27L27 27L27 29L28 29L28 27L29 27L29 25L28 25L28 24L26 24L26 25L25 25L25 23L26 23L26 22L27 22L27 23L28 23L28 22L29 22L29 21L27 21L27 18L28 18L28 15L29 15L29 13L27 13L27 12L26 12L26 11L28 11L28 12L29 12L29 11L28 11L28 10L29 10L29 8L28 8L28 10L26 10L26 11L24 11L24 10L25 10L25 9L27 9L27 8L24 8L24 9L22 9L22 8L21 8L21 6L20 6L20 5L21 5L21 4L20 4L20 3L21 3L21 2L20 2L20 3L19 3L19 2L18 2L18 3L17 3L17 1L16 1L16 0L12 0L12 1L11 1L11 0L10 0L10 1L9 1L9 0ZM19 0L19 1L21 1L21 0ZM14 1L14 2L11 2L11 4L12 4L12 3L13 3L13 5L12 5L12 6L11 6L11 8L12 8L12 6L13 6L13 8L14 8L14 9L15 9L15 7L16 7L16 6L15 6L15 5L16 5L16 4L17 4L17 3L16 3L16 1ZM14 3L14 5L13 5L13 6L14 6L14 7L15 7L15 6L14 6L14 5L15 5L15 4L16 4L16 3ZM18 3L18 4L19 4L19 3ZM17 5L17 7L18 7L18 8L20 8L20 6L19 6L19 7L18 7L18 5ZM8 6L8 7L9 7L9 6ZM6 8L6 9L7 9L7 8ZM8 8L8 9L9 9L9 8ZM2 9L2 10L3 10L3 9ZM11 9L11 10L12 10L12 9ZM16 9L16 10L14 10L14 11L11 11L11 13L8 13L8 12L9 12L9 11L8 11L8 12L7 12L7 11L6 11L6 12L7 12L7 13L5 13L5 14L7 14L7 13L8 13L8 15L6 15L6 16L5 16L5 17L4 17L4 18L5 18L5 17L6 17L6 18L8 18L8 19L9 19L9 18L10 18L10 17L11 17L11 19L10 19L10 21L11 21L11 23L14 23L14 22L15 22L15 23L16 23L16 24L12 24L12 26L13 26L13 27L14 27L14 26L15 26L15 25L17 25L17 24L18 24L18 22L16 22L16 21L17 21L17 20L16 20L16 19L15 19L15 21L13 21L13 18L14 18L14 15L15 15L15 16L16 16L16 17L17 17L17 19L19 19L19 20L18 20L18 21L20 21L20 19L21 19L21 16L22 16L22 19L23 19L23 16L24 16L24 15L25 15L25 17L24 17L24 20L26 20L26 19L25 19L25 18L26 18L26 17L27 17L27 15L25 15L25 14L27 14L27 13L25 13L25 12L22 12L22 10L21 10L21 9L20 9L20 10L19 10L19 11L20 11L20 12L18 12L18 10L17 10L17 9ZM20 10L20 11L21 11L21 10ZM15 11L15 12L14 12L14 14L13 14L13 12L12 12L12 13L11 13L11 14L9 14L9 16L8 16L8 17L9 17L9 16L10 16L10 15L11 15L11 16L12 16L12 17L13 17L13 16L12 16L12 14L13 14L13 15L14 15L14 14L16 14L16 13L17 13L17 15L16 15L16 16L17 16L17 15L18 15L18 17L19 17L19 15L20 15L20 14L21 14L21 15L22 15L22 16L23 16L23 15L24 15L24 14L23 14L23 13L22 13L22 14L21 14L21 12L20 12L20 13L18 13L18 12L17 12L17 11ZM18 14L18 15L19 15L19 14ZM22 14L22 15L23 15L23 14ZM6 16L6 17L7 17L7 16ZM0 18L0 19L1 19L1 18ZM2 19L2 20L1 20L1 21L2 21L2 20L3 20L3 21L4 21L4 20L3 20L3 19ZM6 19L6 20L7 20L7 19ZM11 19L11 20L12 20L12 19ZM21 21L21 24L24 24L24 21ZM22 22L22 23L23 23L23 22ZM9 24L9 25L8 25L8 29L9 29L9 25L10 25L10 24ZM13 25L13 26L14 26L14 25ZM24 26L24 28L25 28L25 26ZM0 0L0 7L7 7L7 0ZM1 1L1 6L6 6L6 1ZM2 2L2 5L5 5L5 2ZM22 0L22 7L29 7L29 0ZM23 1L23 6L28 6L28 1ZM24 2L24 5L27 5L27 2ZM0 22L0 29L7 29L7 22ZM1 23L1 28L6 28L6 23ZM2 24L2 27L5 27L5 24Z" fill="#000000"/></g></g></svg>
